<?xml version="1.0" encoding="utf-8"?>
<!-- Generated by IcoMoon.io -->
<!DOCTYPE svg PUBLIC "-//W3C//DTD SVG 1.1//EN" "http://www.w3.org/Graphics/SVG/1.1/DTD/svg11.dtd">
<svg version="1.1" xmlns="http://www.w3.org/2000/svg" xmlns:xlink="http://www.w3.org/1999/xlink" width="38" height="32" viewBox="0 0 38 32">
<path fill="#444444" d="M10.855 22.815l8.662 8.464c0.245 0.246 0.586 0.395 0.961 0.395 0.749 0 1.363-0.606 1.363-1.35v-28.65c0-0.743-0.614-1.35-1.363-1.35-0.382 0-0.729 0.157-0.975 0.409l-8.641 8.451h-5.377c-1.506 0-2.726 1.22-2.726 2.726v8.178c0 1.506 1.22 2.726 2.726 2.726z"></path>
<path fill="#444444" d="M32.273 16.873l3.096-3.143c0.57-0.579 0.57-1.517 0-2.095s-1.495-0.579-2.064 0l-3.096 3.143-3.096-3.143c-0.57-0.579-1.494-0.579-2.064 0s-0.57 1.517 0 2.095l3.096 3.143-3.096 3.143c-0.57 0.579-0.57 1.517 0 2.095s1.495 0.579 2.064 0l3.096-3.143 3.096 3.143c0.57 0.579 1.494 0.579 2.064 0s0.57-1.517 0-2.095l-3.096-3.143z"></path>
</svg>
