<?xml version="1.0" encoding="utf-8"?>
<!-- Generated by IcoMoon.io -->
<!DOCTYPE svg PUBLIC "-//W3C//DTD SVG 1.1//EN" "http://www.w3.org/Graphics/SVG/1.1/DTD/svg11.dtd">
<svg version="1.1" xmlns="http://www.w3.org/2000/svg" xmlns:xlink="http://www.w3.org/1999/xlink" width="38" height="32" viewBox="0 0 38 32">
<path fill="#444444" d="M11.224 22.815l8.662 8.464c0.245 0.246 0.586 0.395 0.961 0.395 0.749 0 1.363-0.606 1.363-1.35v-28.65c0-0.743-0.614-1.35-1.363-1.35-0.382 0-0.729 0.157-0.975 0.409l-8.641 8.451h-5.377c-1.506 0-2.726 1.22-2.726 2.726v8.178c0 1.506 1.22 2.726 2.726 2.726h5.37zM29.877 7.631c-0.654 0.647-0.654 1.704 0 2.358 1.622 1.629 2.63 3.871 2.63 6.351s-1.015 4.723-2.637 6.352c-0.655 0.654-0.655 1.711 0 2.358 0.647 0.654 1.704 0.654 2.358 0 2.228-2.229 3.612-5.309 3.612-8.71 0-3.394-1.37-6.468-3.591-8.696l-0.014-0.014c-0.654-0.655-1.704-0.655-2.358-0zM28.466 21.282c1.26-1.267 2.038-3.012 2.038-4.941s-0.777-3.673-2.038-4.941c-0.654-0.654-1.711-0.654-2.358 0-0.654 0.648-0.654 1.704 0 2.358 0.654 0.661 1.063 1.574 1.063 2.583s-0.408 1.922-1.063 2.583c-0.654 0.654-0.654 1.704 0 2.358 0.647 0.648 1.704 0.654 2.358-0z"></path>
</svg>
